<svg xmlns="http://www.w3.org/2000/svg" width="37.048" height="33" viewBox="0 0 37.048 33">
  <path id="shopping-basket" d="M34.97,38.325H31.226l-5.211-9.842A1.088,1.088,0,0,0,24.092,29.5l4.672,8.824H8.278L12.95,29.5a1.088,1.088,0,0,0-1.923-1.018L5.816,38.325H2.078A2.081,2.081,0,0,0,0,40.4v2.417a2.081,2.081,0,0,0,1.935,2.073L5.585,60.07a1.088,1.088,0,0,0,1.058.834H30.4a1.088,1.088,0,0,0,1.058-.833l3.659-15.177a2.081,2.081,0,0,0,1.934-2.073V40.4A2.081,2.081,0,0,0,34.97,38.325ZM2.176,40.5h32.7v2.222H2.176Zm29.295,10.22H26.707l.727-5.823h5.441ZM19.614,58.728V52.9h4.628l-.728,5.83Zm-6.077,0-.729-5.83h4.629v5.83ZM4.175,44.9H9.616l.728,5.823H5.575Zm7.634,0h5.629v5.823h-4.9Zm7.8,5.823V44.9h5.627l-.727,5.823ZM6.1,52.9h4.517l.729,5.83H7.5Zm23.442,5.83H25.707l.728-5.83h4.511Z" transform="translate(0 -27.904)" fill="#6c7b64"/>
</svg>
